# xmcd
#
# Track frame offsets: 
#        165
#        21290
#        61622
#        83968
#        97757
#        123305
#        150762
#        169112
#        186220
#        203171
#        245350
#
# Disc length: 3457 seconds
#
# Revision: 0
# Processed by: cddbd v1.5.1PL2 Copyright (c) Steve Scherf et al.
# Submitted via: ExactAudioCopy v0.95b4
#
DISCID=7a0d7f0b
DTITLE=Greg Schaber and High Street - Gypsy Moon
DYEAR=1998
DGENRE=Blues
TTITLE0=Wise Man in the Making
TTITLE1=The Life You're Livin
TTITLE2=Gypsy Moon
TTITLE3=Realistic Avenue
TTITLE4=Government Fleet Blues
TTITLE5=Where There's Smoke, There's Fire
TTITLE6=All the Blues I can Stand
TTITLE7=She Put the Voodoo On
TTITLE8=Pony Blues
TTITLE9=Somebody Else's Dream
TTITLE10=Dance Your Blues Away
EXTD=
EXTT0=
EXTT1=
EXTT2=
EXTT3=
EXTT4=
EXTT5=
EXTT6=
EXTT7=
EXTT8=
EXTT9=
EXTT10=
PLAYORDER=
